G04 #@! TF.FileFunction,Legend,Bot*
%FSLAX46Y46*%
G04 Gerber Fmt 4.6, Leading zero omitted, Abs format (unit mm)*
G04 Created by KiCad (PCBNEW 4.0.7) date 06/27/19 13:37:23*
%MOMM*%
%LPD*%
G01*
G04 APERTURE LIST*
%ADD10C,0.100000*%
%ADD11C,0.120000*%
%ADD12C,0.150000*%
G04 APERTURE END LIST*
D10*
X85325000Y-106705477D02*
X85286905Y-106629286D01*
X85286905Y-106515001D01*
X85325000Y-106400715D01*
X85401190Y-106324524D01*
X85477381Y-106286429D01*
X85629762Y-106248334D01*
X85744048Y-106248334D01*
X85896429Y-106286429D01*
X85972619Y-106324524D01*
X86048810Y-106400715D01*
X86086905Y-106515001D01*
X86086905Y-106591191D01*
X86048810Y-106705477D01*
X86010714Y-106743572D01*
X85744048Y-106743572D01*
X85744048Y-106591191D01*
X86086905Y-107086429D02*
X85286905Y-107086429D01*
X86086905Y-107543572D01*
X85286905Y-107543572D01*
X86086905Y-107924524D02*
X85286905Y-107924524D01*
X85286905Y-108115000D01*
X85325000Y-108229286D01*
X85401190Y-108305477D01*
X85477381Y-108343572D01*
X85629762Y-108381667D01*
X85744048Y-108381667D01*
X85896429Y-108343572D01*
X85972619Y-108305477D01*
X86048810Y-108229286D01*
X86086905Y-108115000D01*
X86086905Y-107924524D01*
X79349523Y-105010000D02*
X79425714Y-104971905D01*
X79539999Y-104971905D01*
X79654285Y-105010000D01*
X79730476Y-105086190D01*
X79768571Y-105162381D01*
X79806666Y-105314762D01*
X79806666Y-105429048D01*
X79768571Y-105581429D01*
X79730476Y-105657619D01*
X79654285Y-105733810D01*
X79539999Y-105771905D01*
X79463809Y-105771905D01*
X79349523Y-105733810D01*
X79311428Y-105695714D01*
X79311428Y-105429048D01*
X79463809Y-105429048D01*
X78968571Y-105771905D02*
X78968571Y-104971905D01*
X78511428Y-105771905D01*
X78511428Y-104971905D01*
X78130476Y-105771905D02*
X78130476Y-104971905D01*
X77940000Y-104971905D01*
X77825714Y-105010000D01*
X77749523Y-105086190D01*
X77711428Y-105162381D01*
X77673333Y-105314762D01*
X77673333Y-105429048D01*
X77711428Y-105581429D01*
X77749523Y-105657619D01*
X77825714Y-105733810D01*
X77940000Y-105771905D01*
X78130476Y-105771905D01*
X86086905Y-110102619D02*
X85705952Y-109835952D01*
X86086905Y-109645476D02*
X85286905Y-109645476D01*
X85286905Y-109950238D01*
X85325000Y-110026429D01*
X85363095Y-110064524D01*
X85439286Y-110102619D01*
X85553571Y-110102619D01*
X85629762Y-110064524D01*
X85667857Y-110026429D01*
X85705952Y-109950238D01*
X85705952Y-109645476D01*
X86086905Y-105022619D02*
X85705952Y-104755952D01*
X86086905Y-104565476D02*
X85286905Y-104565476D01*
X85286905Y-104870238D01*
X85325000Y-104946429D01*
X85363095Y-104984524D01*
X85439286Y-105022619D01*
X85553571Y-105022619D01*
X85629762Y-104984524D01*
X85667857Y-104946429D01*
X85705952Y-104870238D01*
X85705952Y-104565476D01*
X74237857Y-109797857D02*
X74123571Y-109835952D01*
X74085476Y-109874048D01*
X74047381Y-109950238D01*
X74047381Y-110064524D01*
X74085476Y-110140714D01*
X74123571Y-110178810D01*
X74199762Y-110216905D01*
X74504524Y-110216905D01*
X74504524Y-109416905D01*
X74237857Y-109416905D01*
X74161667Y-109455000D01*
X74123571Y-109493095D01*
X74085476Y-109569286D01*
X74085476Y-109645476D01*
X74123571Y-109721667D01*
X74161667Y-109759762D01*
X74237857Y-109797857D01*
X74504524Y-109797857D01*
X75990476Y-105010000D02*
X76066667Y-104971905D01*
X76180952Y-104971905D01*
X76295238Y-105010000D01*
X76371429Y-105086190D01*
X76409524Y-105162381D01*
X76447619Y-105314762D01*
X76447619Y-105429048D01*
X76409524Y-105581429D01*
X76371429Y-105657619D01*
X76295238Y-105733810D01*
X76180952Y-105771905D01*
X76104762Y-105771905D01*
X75990476Y-105733810D01*
X75952381Y-105695714D01*
X75952381Y-105429048D01*
X76104762Y-105429048D01*
X81032381Y-105771905D02*
X81299048Y-105390952D01*
X81489524Y-105771905D02*
X81489524Y-104971905D01*
X81184762Y-104971905D01*
X81108571Y-105010000D01*
X81070476Y-105048095D01*
X81032381Y-105124286D01*
X81032381Y-105238571D01*
X81070476Y-105314762D01*
X81108571Y-105352857D01*
X81184762Y-105390952D01*
X81489524Y-105390952D01*
X82663811Y-92965714D02*
X82701906Y-93003810D01*
X82816192Y-93041905D01*
X82892382Y-93041905D01*
X83006668Y-93003810D01*
X83082859Y-92927619D01*
X83120954Y-92851429D01*
X83159049Y-92699048D01*
X83159049Y-92584762D01*
X83120954Y-92432381D01*
X83082859Y-92356190D01*
X83006668Y-92280000D01*
X82892382Y-92241905D01*
X82816192Y-92241905D01*
X82701906Y-92280000D01*
X82663811Y-92318095D01*
X82206668Y-93041905D02*
X82282859Y-93003810D01*
X82320954Y-92965714D01*
X82359049Y-92889524D01*
X82359049Y-92660952D01*
X82320954Y-92584762D01*
X82282859Y-92546667D01*
X82206668Y-92508571D01*
X82092382Y-92508571D01*
X82016192Y-92546667D01*
X81978097Y-92584762D01*
X81940001Y-92660952D01*
X81940001Y-92889524D01*
X81978097Y-92965714D01*
X82016192Y-93003810D01*
X82092382Y-93041905D01*
X82206668Y-93041905D01*
X81597144Y-93041905D02*
X81597144Y-92508571D01*
X81597144Y-92584762D02*
X81559049Y-92546667D01*
X81482858Y-92508571D01*
X81368572Y-92508571D01*
X81292382Y-92546667D01*
X81254287Y-92622857D01*
X81254287Y-93041905D01*
X81254287Y-92622857D02*
X81216191Y-92546667D01*
X81140001Y-92508571D01*
X81025715Y-92508571D01*
X80949525Y-92546667D01*
X80911430Y-92622857D01*
X80911430Y-93041905D01*
X80530477Y-93041905D02*
X80530477Y-92508571D01*
X80530477Y-92584762D02*
X80492382Y-92546667D01*
X80416191Y-92508571D01*
X80301905Y-92508571D01*
X80225715Y-92546667D01*
X80187620Y-92622857D01*
X80187620Y-93041905D01*
X80187620Y-92622857D02*
X80149524Y-92546667D01*
X80073334Y-92508571D01*
X79959048Y-92508571D01*
X79882858Y-92546667D01*
X79844763Y-92622857D01*
X79844763Y-93041905D01*
X79349524Y-93041905D02*
X79425715Y-93003810D01*
X79463810Y-92965714D01*
X79501905Y-92889524D01*
X79501905Y-92660952D01*
X79463810Y-92584762D01*
X79425715Y-92546667D01*
X79349524Y-92508571D01*
X79235238Y-92508571D01*
X79159048Y-92546667D01*
X79120953Y-92584762D01*
X79082857Y-92660952D01*
X79082857Y-92889524D01*
X79120953Y-92965714D01*
X79159048Y-93003810D01*
X79235238Y-93041905D01*
X79349524Y-93041905D01*
X78397143Y-93041905D02*
X78397143Y-92241905D01*
X78397143Y-93003810D02*
X78473333Y-93041905D01*
X78625714Y-93041905D01*
X78701905Y-93003810D01*
X78740000Y-92965714D01*
X78778095Y-92889524D01*
X78778095Y-92660952D01*
X78740000Y-92584762D01*
X78701905Y-92546667D01*
X78625714Y-92508571D01*
X78473333Y-92508571D01*
X78397143Y-92546667D01*
X77901904Y-93041905D02*
X77978095Y-93003810D01*
X78016190Y-92965714D01*
X78054285Y-92889524D01*
X78054285Y-92660952D01*
X78016190Y-92584762D01*
X77978095Y-92546667D01*
X77901904Y-92508571D01*
X77787618Y-92508571D01*
X77711428Y-92546667D01*
X77673333Y-92584762D01*
X77635237Y-92660952D01*
X77635237Y-92889524D01*
X77673333Y-92965714D01*
X77711428Y-93003810D01*
X77787618Y-93041905D01*
X77901904Y-93041905D01*
X77292380Y-93041905D02*
X77292380Y-92508571D01*
X77292380Y-92660952D02*
X77254285Y-92584762D01*
X77216189Y-92546667D01*
X77139999Y-92508571D01*
X77063808Y-92508571D01*
X76492380Y-93003810D02*
X76568570Y-93041905D01*
X76720951Y-93041905D01*
X76797142Y-93003810D01*
X76835237Y-92927619D01*
X76835237Y-92622857D01*
X76797142Y-92546667D01*
X76720951Y-92508571D01*
X76568570Y-92508571D01*
X76492380Y-92546667D01*
X76454285Y-92622857D01*
X76454285Y-92699048D01*
X76835237Y-92775238D01*
X75159047Y-92241905D02*
X75311428Y-92241905D01*
X75387618Y-92280000D01*
X75425713Y-92318095D01*
X75501904Y-92432381D01*
X75539999Y-92584762D01*
X75539999Y-92889524D01*
X75501904Y-92965714D01*
X75463809Y-93003810D01*
X75387618Y-93041905D01*
X75235237Y-93041905D01*
X75159047Y-93003810D01*
X75120951Y-92965714D01*
X75082856Y-92889524D01*
X75082856Y-92699048D01*
X75120951Y-92622857D01*
X75159047Y-92584762D01*
X75235237Y-92546667D01*
X75387618Y-92546667D01*
X75463809Y-92584762D01*
X75501904Y-92622857D01*
X75539999Y-92699048D01*
X74397142Y-92508571D02*
X74397142Y-93041905D01*
X74587618Y-92203810D02*
X74778094Y-92775238D01*
X74282856Y-92775238D01*
X81749524Y-94418095D02*
X81825715Y-94380000D01*
X81901905Y-94303810D01*
X82016191Y-94189524D01*
X82092382Y-94151429D01*
X82168572Y-94151429D01*
X82130477Y-94341905D02*
X82206667Y-94303810D01*
X82282858Y-94227619D01*
X82320953Y-94075238D01*
X82320953Y-93808571D01*
X82282858Y-93656190D01*
X82206667Y-93580000D01*
X82130477Y-93541905D01*
X81978096Y-93541905D01*
X81901905Y-93580000D01*
X81825715Y-93656190D01*
X81787620Y-93808571D01*
X81787620Y-94075238D01*
X81825715Y-94227619D01*
X81901905Y-94303810D01*
X81978096Y-94341905D01*
X82130477Y-94341905D01*
X81101906Y-93808571D02*
X81101906Y-94341905D01*
X81444763Y-93808571D02*
X81444763Y-94227619D01*
X81406668Y-94303810D01*
X81330477Y-94341905D01*
X81216191Y-94341905D01*
X81140001Y-94303810D01*
X81101906Y-94265714D01*
X80378096Y-94341905D02*
X80378096Y-93922857D01*
X80416191Y-93846667D01*
X80492381Y-93808571D01*
X80644762Y-93808571D01*
X80720953Y-93846667D01*
X80378096Y-94303810D02*
X80454286Y-94341905D01*
X80644762Y-94341905D01*
X80720953Y-94303810D01*
X80759048Y-94227619D01*
X80759048Y-94151429D01*
X80720953Y-94075238D01*
X80644762Y-94037143D01*
X80454286Y-94037143D01*
X80378096Y-93999048D01*
X79654286Y-94341905D02*
X79654286Y-93541905D01*
X79654286Y-94303810D02*
X79730476Y-94341905D01*
X79882857Y-94341905D01*
X79959048Y-94303810D01*
X79997143Y-94265714D01*
X80035238Y-94189524D01*
X80035238Y-93960952D01*
X79997143Y-93884762D01*
X79959048Y-93846667D01*
X79882857Y-93808571D01*
X79730476Y-93808571D01*
X79654286Y-93846667D01*
X78663809Y-94341905D02*
X78663809Y-93541905D01*
X78206666Y-94341905D02*
X78549523Y-93884762D01*
X78206666Y-93541905D02*
X78663809Y-93999048D01*
X77559047Y-94303810D02*
X77635237Y-94341905D01*
X77787618Y-94341905D01*
X77863809Y-94303810D01*
X77901904Y-94227619D01*
X77901904Y-93922857D01*
X77863809Y-93846667D01*
X77787618Y-93808571D01*
X77635237Y-93808571D01*
X77559047Y-93846667D01*
X77520952Y-93922857D01*
X77520952Y-93999048D01*
X77901904Y-94075238D01*
X77178095Y-94341905D02*
X77178095Y-93808571D01*
X77178095Y-93960952D02*
X77140000Y-93884762D01*
X77101904Y-93846667D01*
X77025714Y-93808571D01*
X76949523Y-93808571D01*
X76682857Y-93808571D02*
X76682857Y-94341905D01*
X76682857Y-93884762D02*
X76644762Y-93846667D01*
X76568571Y-93808571D01*
X76454285Y-93808571D01*
X76378095Y-93846667D01*
X76340000Y-93922857D01*
X76340000Y-94341905D01*
X75616190Y-94341905D02*
X75616190Y-93922857D01*
X75654285Y-93846667D01*
X75730475Y-93808571D01*
X75882856Y-93808571D01*
X75959047Y-93846667D01*
X75616190Y-94303810D02*
X75692380Y-94341905D01*
X75882856Y-94341905D01*
X75959047Y-94303810D01*
X75997142Y-94227619D01*
X75997142Y-94151429D01*
X75959047Y-94075238D01*
X75882856Y-94037143D01*
X75692380Y-94037143D01*
X75616190Y-93999048D01*
X75120951Y-94341905D02*
X75197142Y-94303810D01*
X75235237Y-94227619D01*
X75235237Y-93541905D01*
X81216190Y-95641905D02*
X81482857Y-95260952D01*
X81673333Y-95641905D02*
X81673333Y-94841905D01*
X81368571Y-94841905D01*
X81292380Y-94880000D01*
X81254285Y-94918095D01*
X81216190Y-94994286D01*
X81216190Y-95108571D01*
X81254285Y-95184762D01*
X81292380Y-95222857D01*
X81368571Y-95260952D01*
X81673333Y-95260952D01*
X80568571Y-95603810D02*
X80644761Y-95641905D01*
X80797142Y-95641905D01*
X80873333Y-95603810D01*
X80911428Y-95527619D01*
X80911428Y-95222857D01*
X80873333Y-95146667D01*
X80797142Y-95108571D01*
X80644761Y-95108571D01*
X80568571Y-95146667D01*
X80530476Y-95222857D01*
X80530476Y-95299048D01*
X80911428Y-95375238D01*
X80263809Y-95108571D02*
X80073333Y-95641905D01*
X79882857Y-95108571D01*
X79578095Y-95641905D02*
X79578095Y-95108571D01*
X79578095Y-94841905D02*
X79616190Y-94880000D01*
X79578095Y-94918095D01*
X79540000Y-94880000D01*
X79578095Y-94841905D01*
X79578095Y-94918095D01*
X79235238Y-95603810D02*
X79159048Y-95641905D01*
X79006667Y-95641905D01*
X78930476Y-95603810D01*
X78892381Y-95527619D01*
X78892381Y-95489524D01*
X78930476Y-95413333D01*
X79006667Y-95375238D01*
X79120952Y-95375238D01*
X79197143Y-95337143D01*
X79235238Y-95260952D01*
X79235238Y-95222857D01*
X79197143Y-95146667D01*
X79120952Y-95108571D01*
X79006667Y-95108571D01*
X78930476Y-95146667D01*
X78549524Y-95641905D02*
X78549524Y-95108571D01*
X78549524Y-94841905D02*
X78587619Y-94880000D01*
X78549524Y-94918095D01*
X78511429Y-94880000D01*
X78549524Y-94841905D01*
X78549524Y-94918095D01*
X78054286Y-95641905D02*
X78130477Y-95603810D01*
X78168572Y-95565714D01*
X78206667Y-95489524D01*
X78206667Y-95260952D01*
X78168572Y-95184762D01*
X78130477Y-95146667D01*
X78054286Y-95108571D01*
X77940000Y-95108571D01*
X77863810Y-95146667D01*
X77825715Y-95184762D01*
X77787619Y-95260952D01*
X77787619Y-95489524D01*
X77825715Y-95565714D01*
X77863810Y-95603810D01*
X77940000Y-95641905D01*
X78054286Y-95641905D01*
X77444762Y-95108571D02*
X77444762Y-95641905D01*
X77444762Y-95184762D02*
X77406667Y-95146667D01*
X77330476Y-95108571D01*
X77216190Y-95108571D01*
X77140000Y-95146667D01*
X77101905Y-95222857D01*
X77101905Y-95641905D01*
X76149523Y-95413333D02*
X75768571Y-95413333D01*
X76225714Y-95641905D02*
X75959047Y-94841905D01*
X75692380Y-95641905D01*
X85407381Y-67443333D02*
X85026429Y-67443333D01*
X85483572Y-67671905D02*
X85216905Y-66871905D01*
X84950238Y-67671905D01*
X84264524Y-67671905D02*
X84721667Y-67671905D01*
X84493096Y-67671905D02*
X84493096Y-66871905D01*
X84569286Y-66986190D01*
X84645477Y-67062381D01*
X84721667Y-67100476D01*
X83578810Y-67138571D02*
X83578810Y-67671905D01*
X83769286Y-66833810D02*
X83959762Y-67405238D01*
X83464524Y-67405238D01*
X76517381Y-67443333D02*
X76136429Y-67443333D01*
X76593572Y-67671905D02*
X76326905Y-66871905D01*
X76060238Y-67671905D01*
X75374524Y-67671905D02*
X75831667Y-67671905D01*
X75603096Y-67671905D02*
X75603096Y-66871905D01*
X75679286Y-66986190D01*
X75755477Y-67062381D01*
X75831667Y-67100476D01*
X75107857Y-66871905D02*
X74612619Y-66871905D01*
X74879286Y-67176667D01*
X74765000Y-67176667D01*
X74688810Y-67214762D01*
X74650714Y-67252857D01*
X74612619Y-67329048D01*
X74612619Y-67519524D01*
X74650714Y-67595714D01*
X74688810Y-67633810D01*
X74765000Y-67671905D01*
X74993572Y-67671905D01*
X75069762Y-67633810D01*
X75107857Y-67595714D01*
D11*
X77740000Y-74870000D02*
G75*
G03X79740000Y-74870000I1000000J0D01*
G01*
X79740000Y-74870000D02*
X81390000Y-74870000D01*
X81390000Y-74870000D02*
X81390000Y-85150000D01*
X81390000Y-85150000D02*
X76090000Y-85150000D01*
X76090000Y-85150000D02*
X76090000Y-74870000D01*
X76090000Y-74870000D02*
X77740000Y-74870000D01*
X83880000Y-74810000D02*
X83880000Y-85210000D01*
X83880000Y-85210000D02*
X73600000Y-85210000D01*
X73600000Y-85210000D02*
X73600000Y-74810000D01*
X73600000Y-74810000D02*
X83880000Y-74810000D01*
D12*
X79501905Y-76922381D02*
X79501905Y-77731905D01*
X79454286Y-77827143D01*
X79406667Y-77874762D01*
X79311429Y-77922381D01*
X79120952Y-77922381D01*
X79025714Y-77874762D01*
X78978095Y-77827143D01*
X78930476Y-77731905D01*
X78930476Y-76922381D01*
X78501905Y-77017619D02*
X78454286Y-76970000D01*
X78359048Y-76922381D01*
X78120952Y-76922381D01*
X78025714Y-76970000D01*
X77978095Y-77017619D01*
X77930476Y-77112857D01*
X77930476Y-77208095D01*
X77978095Y-77350952D01*
X78549524Y-77922381D01*
X77930476Y-77922381D01*
X82549524Y-86602381D02*
X82549524Y-85602381D01*
X82168571Y-85602381D01*
X82073333Y-85650000D01*
X82025714Y-85697619D01*
X81978095Y-85792857D01*
X81978095Y-85935714D01*
X82025714Y-86030952D01*
X82073333Y-86078571D01*
X82168571Y-86126190D01*
X82549524Y-86126190D01*
X81549524Y-86602381D02*
X81549524Y-85602381D01*
X80501905Y-86507143D02*
X80549524Y-86554762D01*
X80692381Y-86602381D01*
X80787619Y-86602381D01*
X80930477Y-86554762D01*
X81025715Y-86459524D01*
X81073334Y-86364286D01*
X81120953Y-86173810D01*
X81120953Y-86030952D01*
X81073334Y-85840476D01*
X81025715Y-85745238D01*
X80930477Y-85650000D01*
X80787619Y-85602381D01*
X80692381Y-85602381D01*
X80549524Y-85650000D01*
X80501905Y-85697619D01*
X79549524Y-86602381D02*
X80120953Y-86602381D01*
X79835239Y-86602381D02*
X79835239Y-85602381D01*
X79930477Y-85745238D01*
X80025715Y-85840476D01*
X80120953Y-85888095D01*
X79168572Y-85697619D02*
X79120953Y-85650000D01*
X79025715Y-85602381D01*
X78787619Y-85602381D01*
X78692381Y-85650000D01*
X78644762Y-85697619D01*
X78597143Y-85792857D01*
X78597143Y-85888095D01*
X78644762Y-86030952D01*
X79216191Y-86602381D01*
X78597143Y-86602381D01*
X77835238Y-86078571D02*
X78168572Y-86078571D01*
X78168572Y-86602381D02*
X78168572Y-85602381D01*
X77692381Y-85602381D01*
X76882857Y-85602381D02*
X77073334Y-85602381D01*
X77168572Y-85650000D01*
X77216191Y-85697619D01*
X77311429Y-85840476D01*
X77359048Y-86030952D01*
X77359048Y-86411905D01*
X77311429Y-86507143D01*
X77263810Y-86554762D01*
X77168572Y-86602381D01*
X76978095Y-86602381D01*
X76882857Y-86554762D01*
X76835238Y-86507143D01*
X76787619Y-86411905D01*
X76787619Y-86173810D01*
X76835238Y-86078571D01*
X76882857Y-86030952D01*
X76978095Y-85983333D01*
X77168572Y-85983333D01*
X77263810Y-86030952D01*
X77311429Y-86078571D01*
X77359048Y-86173810D01*
X76406667Y-85697619D02*
X76359048Y-85650000D01*
X76263810Y-85602381D01*
X76025714Y-85602381D01*
X75930476Y-85650000D01*
X75882857Y-85697619D01*
X75835238Y-85792857D01*
X75835238Y-85888095D01*
X75882857Y-86030952D01*
X76454286Y-86602381D01*
X75835238Y-86602381D01*
X75359048Y-86602381D02*
X75168572Y-86602381D01*
X75073333Y-86554762D01*
X75025714Y-86507143D01*
X74930476Y-86364286D01*
X74882857Y-86173810D01*
X74882857Y-85792857D01*
X74930476Y-85697619D01*
X74978095Y-85650000D01*
X75073333Y-85602381D01*
X75263810Y-85602381D01*
X75359048Y-85650000D01*
X75406667Y-85697619D01*
X75454286Y-85792857D01*
X75454286Y-86030952D01*
X75406667Y-86126190D01*
X75359048Y-86173810D01*
X75263810Y-86221429D01*
X75073333Y-86221429D01*
X74978095Y-86173810D01*
X74930476Y-86126190D01*
X74882857Y-86030952D01*
M02*
