G04 #@! TF.FileFunction,Copper,L2,Bot,Signal*
%FSLAX46Y46*%
G04 Gerber Fmt 4.6, Leading zero omitted, Abs format (unit mm)*
G04 Created by KiCad (PCBNEW 4.0.7) date 06/17/19 21:45:38*
%MOMM*%
%LPD*%
G01*
G04 APERTURE LIST*
%ADD10C,0.100000*%
%ADD11R,1.700000X1.700000*%
%ADD12O,1.700000X1.700000*%
%ADD13C,1.600000*%
%ADD14O,1.600000X1.600000*%
%ADD15R,1.600000X1.600000*%
%ADD16C,0.600000*%
%ADD17C,0.250000*%
%ADD18C,0.254000*%
G04 APERTURE END LIST*
D10*
D11*
X78105000Y-65405000D03*
D12*
X75565000Y-65405000D03*
X73025000Y-65405000D03*
D11*
X86995000Y-65405000D03*
D12*
X84455000Y-65405000D03*
X81915000Y-65405000D03*
D13*
X74930000Y-99060000D03*
D14*
X74930000Y-88900000D03*
D13*
X78740000Y-99060000D03*
D14*
X78740000Y-88900000D03*
D13*
X69850000Y-65405000D03*
X69850000Y-70405000D03*
D11*
X76200000Y-109855000D03*
D12*
X76200000Y-107315000D03*
X78740000Y-109855000D03*
X78740000Y-107315000D03*
X81280000Y-109855000D03*
X81280000Y-107315000D03*
D13*
X82550000Y-99060000D03*
D14*
X82550000Y-88900000D03*
D15*
X82550000Y-76200000D03*
D14*
X74930000Y-83820000D03*
X82550000Y-78740000D03*
X74930000Y-81280000D03*
X82550000Y-81280000D03*
X74930000Y-78740000D03*
X82550000Y-83820000D03*
X74930000Y-76200000D03*
D15*
X69850000Y-73660000D03*
D14*
X85090000Y-101600000D03*
X69850000Y-76200000D03*
X85090000Y-99060000D03*
X69850000Y-78740000D03*
X85090000Y-96520000D03*
X69850000Y-81280000D03*
X85090000Y-93980000D03*
X69850000Y-83820000D03*
X85090000Y-91440000D03*
X69850000Y-86360000D03*
X85090000Y-88900000D03*
X69850000Y-88900000D03*
X85090000Y-86360000D03*
X69850000Y-91440000D03*
X85090000Y-83820000D03*
X69850000Y-93980000D03*
X85090000Y-81280000D03*
X69850000Y-96520000D03*
X85090000Y-78740000D03*
X69850000Y-99060000D03*
X85090000Y-76200000D03*
X69850000Y-101600000D03*
X85090000Y-73660000D03*
D15*
X72390000Y-68580000D03*
D14*
X87630000Y-101600000D03*
X72390000Y-71120000D03*
X87630000Y-99060000D03*
X72390000Y-73660000D03*
X87630000Y-96520000D03*
X72390000Y-76200000D03*
X87630000Y-93980000D03*
X72390000Y-78740000D03*
X87630000Y-91440000D03*
X72390000Y-81280000D03*
X87630000Y-88900000D03*
X72390000Y-83820000D03*
X87630000Y-86360000D03*
X72390000Y-86360000D03*
X87630000Y-83820000D03*
X72390000Y-88900000D03*
X87630000Y-81280000D03*
X72390000Y-91440000D03*
X87630000Y-78740000D03*
X72390000Y-93980000D03*
X87630000Y-76200000D03*
X72390000Y-96520000D03*
X87630000Y-73660000D03*
X72390000Y-99060000D03*
X87630000Y-71120000D03*
X72390000Y-101600000D03*
X87630000Y-68580000D03*
D11*
X87630000Y-104775000D03*
D12*
X87630000Y-107315000D03*
X87630000Y-109855000D03*
D11*
X69850000Y-109855000D03*
D12*
X69850000Y-107315000D03*
X69850000Y-104775000D03*
D16*
X83185000Y-90805000D03*
X85725000Y-71755000D03*
X84455000Y-71755000D03*
X83185000Y-71120000D03*
X80645000Y-78740000D03*
X78105000Y-80010000D03*
X85725000Y-67945000D03*
X85725000Y-70485000D03*
X79375000Y-80010000D03*
X80645000Y-80010000D03*
X73660000Y-106045000D03*
X73660000Y-104140000D03*
X77470000Y-86360000D03*
X80010000Y-86360000D03*
D17*
X85725000Y-71755000D02*
X84455000Y-71755000D01*
X83185000Y-71120000D02*
X83820000Y-70485000D01*
X83820000Y-70485000D02*
X85725000Y-70485000D01*
X80010000Y-79375000D02*
X80645000Y-78740000D01*
X78740000Y-79375000D02*
X80010000Y-79375000D01*
X78105000Y-80010000D02*
X78740000Y-79375000D01*
X85725000Y-67945000D02*
X85725000Y-70485000D01*
X87630000Y-83820000D02*
X86360000Y-83820000D01*
X86360000Y-83820000D02*
X85090000Y-83820000D01*
X86995000Y-83820000D02*
X87630000Y-83820000D01*
X80645000Y-80010000D02*
X79375000Y-80010000D01*
X73660000Y-104140000D02*
X73660000Y-106045000D01*
X80010000Y-86360000D02*
X77470000Y-86360000D01*
D18*
G36*
X71829817Y-64523642D02*
X71583514Y-65048108D01*
X71704181Y-65278000D01*
X72898000Y-65278000D01*
X72898000Y-65258000D01*
X73152000Y-65258000D01*
X73152000Y-65278000D01*
X73172000Y-65278000D01*
X73172000Y-65532000D01*
X73152000Y-65532000D01*
X73152000Y-66725155D01*
X73381890Y-66846476D01*
X73791924Y-66676645D01*
X74220183Y-66286358D01*
X74287298Y-66143447D01*
X74514946Y-66484147D01*
X74996715Y-66806054D01*
X75565000Y-66919093D01*
X76133285Y-66806054D01*
X76615054Y-66484147D01*
X76642850Y-66442548D01*
X76651838Y-66490317D01*
X76790910Y-66706441D01*
X77003110Y-66851431D01*
X77255000Y-66902440D01*
X78955000Y-66902440D01*
X79190317Y-66858162D01*
X79406441Y-66719090D01*
X79551431Y-66506890D01*
X79602440Y-66255000D01*
X79602440Y-65761892D01*
X80473514Y-65761892D01*
X80719817Y-66286358D01*
X81148076Y-66676645D01*
X81558110Y-66846476D01*
X81788000Y-66725155D01*
X81788000Y-65532000D01*
X80594181Y-65532000D01*
X80473514Y-65761892D01*
X79602440Y-65761892D01*
X79602440Y-64555000D01*
X79558162Y-64319683D01*
X79487583Y-64210000D01*
X81063974Y-64210000D01*
X80719817Y-64523642D01*
X80473514Y-65048108D01*
X80594181Y-65278000D01*
X81788000Y-65278000D01*
X81788000Y-65258000D01*
X82042000Y-65258000D01*
X82042000Y-65278000D01*
X82062000Y-65278000D01*
X82062000Y-65532000D01*
X82042000Y-65532000D01*
X82042000Y-66725155D01*
X82271890Y-66846476D01*
X82681924Y-66676645D01*
X83110183Y-66286358D01*
X83177298Y-66143447D01*
X83404946Y-66484147D01*
X83886715Y-66806054D01*
X84455000Y-66919093D01*
X85023285Y-66806054D01*
X85505054Y-66484147D01*
X85532850Y-66442548D01*
X85541838Y-66490317D01*
X85680910Y-66706441D01*
X85893110Y-66851431D01*
X86145000Y-66902440D01*
X87845000Y-66902440D01*
X88080317Y-66858162D01*
X88190000Y-66787583D01*
X88190000Y-67250799D01*
X87658113Y-67145000D01*
X87601887Y-67145000D01*
X87052736Y-67254233D01*
X86587189Y-67565302D01*
X86582613Y-67572150D01*
X86518117Y-67416057D01*
X86255327Y-67152808D01*
X85911799Y-67010162D01*
X85539833Y-67009838D01*
X85196057Y-67151883D01*
X84932808Y-67414673D01*
X84790162Y-67758201D01*
X84789838Y-68130167D01*
X84931883Y-68473943D01*
X84965000Y-68507118D01*
X84965000Y-69725000D01*
X83820000Y-69725000D01*
X83529161Y-69782852D01*
X83282599Y-69947599D01*
X83045320Y-70184878D01*
X82999833Y-70184838D01*
X82656057Y-70326883D01*
X82392808Y-70589673D01*
X82250162Y-70933201D01*
X82249838Y-71305167D01*
X82391883Y-71648943D01*
X82654673Y-71912192D01*
X82998201Y-72054838D01*
X83370167Y-72055162D01*
X83538597Y-71985568D01*
X83661883Y-72283943D01*
X83924673Y-72547192D01*
X84090789Y-72616170D01*
X84047189Y-72645302D01*
X83736120Y-73110849D01*
X83626887Y-73660000D01*
X83736120Y-74209151D01*
X84047189Y-74674698D01*
X84429275Y-74930000D01*
X84047189Y-75185302D01*
X83976850Y-75290572D01*
X83953162Y-75164683D01*
X83814090Y-74948559D01*
X83601890Y-74803569D01*
X83350000Y-74752560D01*
X81750000Y-74752560D01*
X81514683Y-74796838D01*
X81298559Y-74935910D01*
X81153569Y-75148110D01*
X81102560Y-75400000D01*
X81102560Y-77000000D01*
X81146838Y-77235317D01*
X81285910Y-77451441D01*
X81498110Y-77596431D01*
X81653089Y-77627815D01*
X81507189Y-77725302D01*
X81285063Y-78057736D01*
X81175327Y-77947808D01*
X80831799Y-77805162D01*
X80459833Y-77804838D01*
X80116057Y-77946883D01*
X79852808Y-78209673D01*
X79710162Y-78553201D01*
X79710121Y-78600077D01*
X79695198Y-78615000D01*
X78740000Y-78615000D01*
X78449161Y-78672852D01*
X78202599Y-78837599D01*
X77965320Y-79074878D01*
X77919833Y-79074838D01*
X77576057Y-79216883D01*
X77312808Y-79479673D01*
X77170162Y-79823201D01*
X77169838Y-80195167D01*
X77311883Y-80538943D01*
X77574673Y-80802192D01*
X77918201Y-80944838D01*
X78290167Y-80945162D01*
X78633943Y-80803117D01*
X78739954Y-80697290D01*
X78844673Y-80802192D01*
X79188201Y-80944838D01*
X79560167Y-80945162D01*
X79903943Y-80803117D01*
X79937118Y-80770000D01*
X80082537Y-80770000D01*
X80114673Y-80802192D01*
X80458201Y-80944838D01*
X80830167Y-80945162D01*
X81173943Y-80803117D01*
X81183678Y-80793399D01*
X81086887Y-81280000D01*
X81196120Y-81829151D01*
X81507189Y-82294698D01*
X81889275Y-82550000D01*
X81507189Y-82805302D01*
X81196120Y-83270849D01*
X81086887Y-83820000D01*
X81196120Y-84369151D01*
X81507189Y-84834698D01*
X81972736Y-85145767D01*
X82521887Y-85255000D01*
X82578113Y-85255000D01*
X83127264Y-85145767D01*
X83592811Y-84834698D01*
X83820000Y-84494686D01*
X84047189Y-84834698D01*
X84429275Y-85090000D01*
X84047189Y-85345302D01*
X83736120Y-85810849D01*
X83626887Y-86360000D01*
X83736120Y-86909151D01*
X84047189Y-87374698D01*
X84429275Y-87630000D01*
X84047189Y-87885302D01*
X83815336Y-88232294D01*
X83564698Y-87857189D01*
X83099151Y-87546120D01*
X82550000Y-87436887D01*
X82000849Y-87546120D01*
X81535302Y-87857189D01*
X81224233Y-88322736D01*
X81115000Y-88871887D01*
X81115000Y-88928113D01*
X81224233Y-89477264D01*
X81535302Y-89942811D01*
X82000849Y-90253880D01*
X82550000Y-90363113D01*
X83099151Y-90253880D01*
X83564698Y-89942811D01*
X83815336Y-89567706D01*
X84047189Y-89914698D01*
X84429275Y-90170000D01*
X84047189Y-90425302D01*
X83736120Y-90890849D01*
X83626887Y-91440000D01*
X83736120Y-91989151D01*
X84047189Y-92454698D01*
X84429275Y-92710000D01*
X84047189Y-92965302D01*
X83736120Y-93430849D01*
X83626887Y-93980000D01*
X83736120Y-94529151D01*
X84047189Y-94994698D01*
X84429275Y-95250000D01*
X84047189Y-95505302D01*
X83736120Y-95970849D01*
X83626887Y-96520000D01*
X83736120Y-97069151D01*
X84047189Y-97534698D01*
X84429275Y-97790000D01*
X84047189Y-98045302D01*
X83822408Y-98381710D01*
X83767243Y-98248200D01*
X83363923Y-97844176D01*
X82836691Y-97625250D01*
X82265813Y-97624752D01*
X81738200Y-97842757D01*
X81334176Y-98246077D01*
X81115250Y-98773309D01*
X81114752Y-99344187D01*
X81332757Y-99871800D01*
X81736077Y-100275824D01*
X82263309Y-100494750D01*
X82834187Y-100495248D01*
X83361800Y-100277243D01*
X83765824Y-99873923D01*
X83822245Y-99738046D01*
X84047189Y-100074698D01*
X84429275Y-100330000D01*
X84047189Y-100585302D01*
X83736120Y-101050849D01*
X83626887Y-101600000D01*
X83736120Y-102149151D01*
X84047189Y-102614698D01*
X84512736Y-102925767D01*
X85061887Y-103035000D01*
X85118113Y-103035000D01*
X85667264Y-102925767D01*
X86132811Y-102614698D01*
X86360000Y-102274686D01*
X86587189Y-102614698D01*
X87052736Y-102925767D01*
X87601887Y-103035000D01*
X87658113Y-103035000D01*
X88190000Y-102929201D01*
X88190000Y-103277560D01*
X86780000Y-103277560D01*
X86544683Y-103321838D01*
X86328559Y-103460910D01*
X86183569Y-103673110D01*
X86132560Y-103925000D01*
X86132560Y-105625000D01*
X86176838Y-105860317D01*
X86315910Y-106076441D01*
X86528110Y-106221431D01*
X86636107Y-106243301D01*
X86358355Y-106548076D01*
X86188524Y-106958110D01*
X86309845Y-107188000D01*
X87503000Y-107188000D01*
X87503000Y-107168000D01*
X87757000Y-107168000D01*
X87757000Y-107188000D01*
X87777000Y-107188000D01*
X87777000Y-107442000D01*
X87757000Y-107442000D01*
X87757000Y-107462000D01*
X87503000Y-107462000D01*
X87503000Y-107442000D01*
X86309845Y-107442000D01*
X86188524Y-107671890D01*
X86358355Y-108081924D01*
X86748642Y-108510183D01*
X86891553Y-108577298D01*
X86550853Y-108804946D01*
X86228946Y-109286715D01*
X86115907Y-109855000D01*
X86227298Y-110415000D01*
X82659396Y-110415000D01*
X82765000Y-109884093D01*
X82765000Y-109825907D01*
X82651961Y-109257622D01*
X82330054Y-108775853D01*
X82044422Y-108585000D01*
X82330054Y-108394147D01*
X82651961Y-107912378D01*
X82765000Y-107344093D01*
X82765000Y-107285907D01*
X82651961Y-106717622D01*
X82330054Y-106235853D01*
X81848285Y-105913946D01*
X81280000Y-105800907D01*
X80711715Y-105913946D01*
X80229946Y-106235853D01*
X80002298Y-106576553D01*
X79935183Y-106433642D01*
X79506924Y-106043355D01*
X79096890Y-105873524D01*
X78867000Y-105994845D01*
X78867000Y-107188000D01*
X78887000Y-107188000D01*
X78887000Y-107442000D01*
X78867000Y-107442000D01*
X78867000Y-109728000D01*
X78887000Y-109728000D01*
X78887000Y-109982000D01*
X78867000Y-109982000D01*
X78867000Y-110002000D01*
X78613000Y-110002000D01*
X78613000Y-109982000D01*
X78593000Y-109982000D01*
X78593000Y-109728000D01*
X78613000Y-109728000D01*
X78613000Y-107442000D01*
X78593000Y-107442000D01*
X78593000Y-107188000D01*
X78613000Y-107188000D01*
X78613000Y-105994845D01*
X78383110Y-105873524D01*
X77973076Y-106043355D01*
X77544817Y-106433642D01*
X77477702Y-106576553D01*
X77250054Y-106235853D01*
X76768285Y-105913946D01*
X76200000Y-105800907D01*
X75631715Y-105913946D01*
X75149946Y-106235853D01*
X74828039Y-106717622D01*
X74715000Y-107285907D01*
X74715000Y-107344093D01*
X74828039Y-107912378D01*
X75149946Y-108394147D01*
X75151179Y-108394971D01*
X75114683Y-108401838D01*
X74898559Y-108540910D01*
X74753569Y-108753110D01*
X74702560Y-109005000D01*
X74702560Y-110415000D01*
X71347440Y-110415000D01*
X71347440Y-109005000D01*
X71303162Y-108769683D01*
X71164090Y-108553559D01*
X70951890Y-108408569D01*
X70884459Y-108394914D01*
X70929147Y-108365054D01*
X71251054Y-107883285D01*
X71364093Y-107315000D01*
X71251054Y-106746715D01*
X70929147Y-106264946D01*
X70599974Y-106045000D01*
X70929147Y-105825054D01*
X71251054Y-105343285D01*
X71364093Y-104775000D01*
X71274616Y-104325167D01*
X72724838Y-104325167D01*
X72866883Y-104668943D01*
X72900000Y-104702118D01*
X72900000Y-105482537D01*
X72867808Y-105514673D01*
X72725162Y-105858201D01*
X72724838Y-106230167D01*
X72866883Y-106573943D01*
X73129673Y-106837192D01*
X73473201Y-106979838D01*
X73845167Y-106980162D01*
X74188943Y-106838117D01*
X74452192Y-106575327D01*
X74594838Y-106231799D01*
X74595162Y-105859833D01*
X74453117Y-105516057D01*
X74420000Y-105482882D01*
X74420000Y-104702463D01*
X74452192Y-104670327D01*
X74594838Y-104326799D01*
X74595162Y-103954833D01*
X74453117Y-103611057D01*
X74190327Y-103347808D01*
X73846799Y-103205162D01*
X73474833Y-103204838D01*
X73131057Y-103346883D01*
X72867808Y-103609673D01*
X72725162Y-103953201D01*
X72724838Y-104325167D01*
X71274616Y-104325167D01*
X71251054Y-104206715D01*
X70929147Y-103724946D01*
X70447378Y-103403039D01*
X69879093Y-103290000D01*
X69820907Y-103290000D01*
X69290000Y-103395604D01*
X69290000Y-102892071D01*
X69500959Y-102991914D01*
X69723000Y-102870629D01*
X69723000Y-101727000D01*
X69977000Y-101727000D01*
X69977000Y-102870629D01*
X70199041Y-102991914D01*
X70705134Y-102752389D01*
X71081041Y-102337423D01*
X71120000Y-102243361D01*
X71158959Y-102337423D01*
X71534866Y-102752389D01*
X72040959Y-102991914D01*
X72263000Y-102870629D01*
X72263000Y-101727000D01*
X72517000Y-101727000D01*
X72517000Y-102870629D01*
X72739041Y-102991914D01*
X73245134Y-102752389D01*
X73621041Y-102337423D01*
X73781904Y-101949039D01*
X73659915Y-101727000D01*
X72517000Y-101727000D01*
X72263000Y-101727000D01*
X71120085Y-101727000D01*
X71120000Y-101727155D01*
X71119915Y-101727000D01*
X69977000Y-101727000D01*
X69723000Y-101727000D01*
X69703000Y-101727000D01*
X69703000Y-101473000D01*
X69723000Y-101473000D01*
X69723000Y-101453000D01*
X69977000Y-101453000D01*
X69977000Y-101473000D01*
X71119915Y-101473000D01*
X71120000Y-101472845D01*
X71120085Y-101473000D01*
X72263000Y-101473000D01*
X72263000Y-101453000D01*
X72517000Y-101453000D01*
X72517000Y-101473000D01*
X73659915Y-101473000D01*
X73781904Y-101250961D01*
X73621041Y-100862577D01*
X73245134Y-100447611D01*
X73028297Y-100344986D01*
X73432811Y-100074698D01*
X73657592Y-99738290D01*
X73712757Y-99871800D01*
X74116077Y-100275824D01*
X74643309Y-100494750D01*
X75214187Y-100495248D01*
X75741800Y-100277243D01*
X76145824Y-99873923D01*
X76364750Y-99346691D01*
X76364752Y-99344187D01*
X77304752Y-99344187D01*
X77522757Y-99871800D01*
X77926077Y-100275824D01*
X78453309Y-100494750D01*
X79024187Y-100495248D01*
X79551800Y-100277243D01*
X79955824Y-99873923D01*
X80174750Y-99346691D01*
X80175248Y-98775813D01*
X79957243Y-98248200D01*
X79553923Y-97844176D01*
X79026691Y-97625250D01*
X78455813Y-97624752D01*
X77928200Y-97842757D01*
X77524176Y-98246077D01*
X77305250Y-98773309D01*
X77304752Y-99344187D01*
X76364752Y-99344187D01*
X76365248Y-98775813D01*
X76147243Y-98248200D01*
X75743923Y-97844176D01*
X75216691Y-97625250D01*
X74645813Y-97624752D01*
X74118200Y-97842757D01*
X73714176Y-98246077D01*
X73657755Y-98381954D01*
X73432811Y-98045302D01*
X73050725Y-97790000D01*
X73432811Y-97534698D01*
X73743880Y-97069151D01*
X73853113Y-96520000D01*
X73743880Y-95970849D01*
X73432811Y-95505302D01*
X73050725Y-95250000D01*
X73432811Y-94994698D01*
X73743880Y-94529151D01*
X73853113Y-93980000D01*
X73743880Y-93430849D01*
X73432811Y-92965302D01*
X73050725Y-92710000D01*
X73432811Y-92454698D01*
X73743880Y-91989151D01*
X73853113Y-91440000D01*
X73743880Y-90890849D01*
X73432811Y-90425302D01*
X73050725Y-90170000D01*
X73432811Y-89914698D01*
X73664664Y-89567706D01*
X73915302Y-89942811D01*
X74380849Y-90253880D01*
X74930000Y-90363113D01*
X75479151Y-90253880D01*
X75944698Y-89942811D01*
X76255767Y-89477264D01*
X76365000Y-88928113D01*
X76365000Y-88871887D01*
X77305000Y-88871887D01*
X77305000Y-88928113D01*
X77414233Y-89477264D01*
X77725302Y-89942811D01*
X78190849Y-90253880D01*
X78740000Y-90363113D01*
X79289151Y-90253880D01*
X79754698Y-89942811D01*
X80065767Y-89477264D01*
X80175000Y-88928113D01*
X80175000Y-88871887D01*
X80065767Y-88322736D01*
X79754698Y-87857189D01*
X79289151Y-87546120D01*
X78740000Y-87436887D01*
X78190849Y-87546120D01*
X77725302Y-87857189D01*
X77414233Y-88322736D01*
X77305000Y-88871887D01*
X76365000Y-88871887D01*
X76255767Y-88322736D01*
X75944698Y-87857189D01*
X75479151Y-87546120D01*
X74930000Y-87436887D01*
X74380849Y-87546120D01*
X73915302Y-87857189D01*
X73664664Y-88232294D01*
X73432811Y-87885302D01*
X73050725Y-87630000D01*
X73432811Y-87374698D01*
X73743880Y-86909151D01*
X73816280Y-86545167D01*
X76534838Y-86545167D01*
X76676883Y-86888943D01*
X76939673Y-87152192D01*
X77283201Y-87294838D01*
X77655167Y-87295162D01*
X77998943Y-87153117D01*
X78032118Y-87120000D01*
X79447537Y-87120000D01*
X79479673Y-87152192D01*
X79823201Y-87294838D01*
X80195167Y-87295162D01*
X80538943Y-87153117D01*
X80802192Y-86890327D01*
X80944838Y-86546799D01*
X80945162Y-86174833D01*
X80803117Y-85831057D01*
X80540327Y-85567808D01*
X80196799Y-85425162D01*
X79824833Y-85424838D01*
X79481057Y-85566883D01*
X79447882Y-85600000D01*
X78032463Y-85600000D01*
X78000327Y-85567808D01*
X77656799Y-85425162D01*
X77284833Y-85424838D01*
X76941057Y-85566883D01*
X76677808Y-85829673D01*
X76535162Y-86173201D01*
X76534838Y-86545167D01*
X73816280Y-86545167D01*
X73853113Y-86360000D01*
X73743880Y-85810849D01*
X73432811Y-85345302D01*
X73050725Y-85090000D01*
X73432811Y-84834698D01*
X73660000Y-84494686D01*
X73887189Y-84834698D01*
X74352736Y-85145767D01*
X74901887Y-85255000D01*
X74958113Y-85255000D01*
X75507264Y-85145767D01*
X75972811Y-84834698D01*
X76283880Y-84369151D01*
X76393113Y-83820000D01*
X76283880Y-83270849D01*
X75972811Y-82805302D01*
X75590725Y-82550000D01*
X75972811Y-82294698D01*
X76283880Y-81829151D01*
X76393113Y-81280000D01*
X76283880Y-80730849D01*
X75972811Y-80265302D01*
X75590725Y-80010000D01*
X75972811Y-79754698D01*
X76283880Y-79289151D01*
X76393113Y-78740000D01*
X76283880Y-78190849D01*
X75972811Y-77725302D01*
X75568297Y-77455014D01*
X75785134Y-77352389D01*
X76161041Y-76937423D01*
X76321904Y-76549039D01*
X76199915Y-76327000D01*
X75057000Y-76327000D01*
X75057000Y-76347000D01*
X74803000Y-76347000D01*
X74803000Y-76327000D01*
X74783000Y-76327000D01*
X74783000Y-76073000D01*
X74803000Y-76073000D01*
X74803000Y-74929371D01*
X75057000Y-74929371D01*
X75057000Y-76073000D01*
X76199915Y-76073000D01*
X76321904Y-75850961D01*
X76161041Y-75462577D01*
X75785134Y-75047611D01*
X75279041Y-74808086D01*
X75057000Y-74929371D01*
X74803000Y-74929371D01*
X74580959Y-74808086D01*
X74074866Y-75047611D01*
X73698959Y-75462577D01*
X73668009Y-75537301D01*
X73432811Y-75185302D01*
X73050725Y-74930000D01*
X73432811Y-74674698D01*
X73743880Y-74209151D01*
X73853113Y-73660000D01*
X73743880Y-73110849D01*
X73432811Y-72645302D01*
X73050725Y-72390000D01*
X73432811Y-72134698D01*
X73743880Y-71669151D01*
X73853113Y-71120000D01*
X73743880Y-70570849D01*
X73432811Y-70105302D01*
X73288535Y-70008899D01*
X73425317Y-69983162D01*
X73641441Y-69844090D01*
X73786431Y-69631890D01*
X73837440Y-69380000D01*
X73837440Y-67780000D01*
X73793162Y-67544683D01*
X73654090Y-67328559D01*
X73441890Y-67183569D01*
X73190000Y-67132560D01*
X71590000Y-67132560D01*
X71354683Y-67176838D01*
X71138559Y-67315910D01*
X70993569Y-67528110D01*
X70942560Y-67780000D01*
X70942560Y-69380000D01*
X70986838Y-69615317D01*
X70987180Y-69615848D01*
X70857745Y-69576861D01*
X70029605Y-70405000D01*
X70857745Y-71233139D01*
X70944211Y-71207094D01*
X71036120Y-71669151D01*
X71347189Y-72134698D01*
X71729275Y-72390000D01*
X71347189Y-72645302D01*
X71276850Y-72750572D01*
X71253162Y-72624683D01*
X71114090Y-72408559D01*
X70901890Y-72263569D01*
X70650000Y-72212560D01*
X69290000Y-72212560D01*
X69290000Y-71728597D01*
X69633223Y-71851965D01*
X70203454Y-71824778D01*
X70604005Y-71658864D01*
X70678139Y-71412745D01*
X69850000Y-70584605D01*
X69835858Y-70598748D01*
X69656253Y-70419143D01*
X69670395Y-70405000D01*
X69656253Y-70390858D01*
X69835858Y-70211252D01*
X69850000Y-70225395D01*
X70678139Y-69397255D01*
X70604005Y-69151136D01*
X70066777Y-68958035D01*
X69496546Y-68985222D01*
X69290000Y-69070776D01*
X69290000Y-66726262D01*
X69563309Y-66839750D01*
X70134187Y-66840248D01*
X70661800Y-66622243D01*
X71065824Y-66218923D01*
X71255599Y-65761892D01*
X71583514Y-65761892D01*
X71829817Y-66286358D01*
X72258076Y-66676645D01*
X72668110Y-66846476D01*
X72898000Y-66725155D01*
X72898000Y-65532000D01*
X71704181Y-65532000D01*
X71583514Y-65761892D01*
X71255599Y-65761892D01*
X71284750Y-65691691D01*
X71285248Y-65120813D01*
X71067243Y-64593200D01*
X70684711Y-64210000D01*
X72173974Y-64210000D01*
X71829817Y-64523642D01*
X71829817Y-64523642D01*
G37*
X71829817Y-64523642D02*
X71583514Y-65048108D01*
X71704181Y-65278000D01*
X72898000Y-65278000D01*
X72898000Y-65258000D01*
X73152000Y-65258000D01*
X73152000Y-65278000D01*
X73172000Y-65278000D01*
X73172000Y-65532000D01*
X73152000Y-65532000D01*
X73152000Y-66725155D01*
X73381890Y-66846476D01*
X73791924Y-66676645D01*
X74220183Y-66286358D01*
X74287298Y-66143447D01*
X74514946Y-66484147D01*
X74996715Y-66806054D01*
X75565000Y-66919093D01*
X76133285Y-66806054D01*
X76615054Y-66484147D01*
X76642850Y-66442548D01*
X76651838Y-66490317D01*
X76790910Y-66706441D01*
X77003110Y-66851431D01*
X77255000Y-66902440D01*
X78955000Y-66902440D01*
X79190317Y-66858162D01*
X79406441Y-66719090D01*
X79551431Y-66506890D01*
X79602440Y-66255000D01*
X79602440Y-65761892D01*
X80473514Y-65761892D01*
X80719817Y-66286358D01*
X81148076Y-66676645D01*
X81558110Y-66846476D01*
X81788000Y-66725155D01*
X81788000Y-65532000D01*
X80594181Y-65532000D01*
X80473514Y-65761892D01*
X79602440Y-65761892D01*
X79602440Y-64555000D01*
X79558162Y-64319683D01*
X79487583Y-64210000D01*
X81063974Y-64210000D01*
X80719817Y-64523642D01*
X80473514Y-65048108D01*
X80594181Y-65278000D01*
X81788000Y-65278000D01*
X81788000Y-65258000D01*
X82042000Y-65258000D01*
X82042000Y-65278000D01*
X82062000Y-65278000D01*
X82062000Y-65532000D01*
X82042000Y-65532000D01*
X82042000Y-66725155D01*
X82271890Y-66846476D01*
X82681924Y-66676645D01*
X83110183Y-66286358D01*
X83177298Y-66143447D01*
X83404946Y-66484147D01*
X83886715Y-66806054D01*
X84455000Y-66919093D01*
X85023285Y-66806054D01*
X85505054Y-66484147D01*
X85532850Y-66442548D01*
X85541838Y-66490317D01*
X85680910Y-66706441D01*
X85893110Y-66851431D01*
X86145000Y-66902440D01*
X87845000Y-66902440D01*
X88080317Y-66858162D01*
X88190000Y-66787583D01*
X88190000Y-67250799D01*
X87658113Y-67145000D01*
X87601887Y-67145000D01*
X87052736Y-67254233D01*
X86587189Y-67565302D01*
X86582613Y-67572150D01*
X86518117Y-67416057D01*
X86255327Y-67152808D01*
X85911799Y-67010162D01*
X85539833Y-67009838D01*
X85196057Y-67151883D01*
X84932808Y-67414673D01*
X84790162Y-67758201D01*
X84789838Y-68130167D01*
X84931883Y-68473943D01*
X84965000Y-68507118D01*
X84965000Y-69725000D01*
X83820000Y-69725000D01*
X83529161Y-69782852D01*
X83282599Y-69947599D01*
X83045320Y-70184878D01*
X82999833Y-70184838D01*
X82656057Y-70326883D01*
X82392808Y-70589673D01*
X82250162Y-70933201D01*
X82249838Y-71305167D01*
X82391883Y-71648943D01*
X82654673Y-71912192D01*
X82998201Y-72054838D01*
X83370167Y-72055162D01*
X83538597Y-71985568D01*
X83661883Y-72283943D01*
X83924673Y-72547192D01*
X84090789Y-72616170D01*
X84047189Y-72645302D01*
X83736120Y-73110849D01*
X83626887Y-73660000D01*
X83736120Y-74209151D01*
X84047189Y-74674698D01*
X84429275Y-74930000D01*
X84047189Y-75185302D01*
X83976850Y-75290572D01*
X83953162Y-75164683D01*
X83814090Y-74948559D01*
X83601890Y-74803569D01*
X83350000Y-74752560D01*
X81750000Y-74752560D01*
X81514683Y-74796838D01*
X81298559Y-74935910D01*
X81153569Y-75148110D01*
X81102560Y-75400000D01*
X81102560Y-77000000D01*
X81146838Y-77235317D01*
X81285910Y-77451441D01*
X81498110Y-77596431D01*
X81653089Y-77627815D01*
X81507189Y-77725302D01*
X81285063Y-78057736D01*
X81175327Y-77947808D01*
X80831799Y-77805162D01*
X80459833Y-77804838D01*
X80116057Y-77946883D01*
X79852808Y-78209673D01*
X79710162Y-78553201D01*
X79710121Y-78600077D01*
X79695198Y-78615000D01*
X78740000Y-78615000D01*
X78449161Y-78672852D01*
X78202599Y-78837599D01*
X77965320Y-79074878D01*
X77919833Y-79074838D01*
X77576057Y-79216883D01*
X77312808Y-79479673D01*
X77170162Y-79823201D01*
X77169838Y-80195167D01*
X77311883Y-80538943D01*
X77574673Y-80802192D01*
X77918201Y-80944838D01*
X78290167Y-80945162D01*
X78633943Y-80803117D01*
X78739954Y-80697290D01*
X78844673Y-80802192D01*
X79188201Y-80944838D01*
X79560167Y-80945162D01*
X79903943Y-80803117D01*
X79937118Y-80770000D01*
X80082537Y-80770000D01*
X80114673Y-80802192D01*
X80458201Y-80944838D01*
X80830167Y-80945162D01*
X81173943Y-80803117D01*
X81183678Y-80793399D01*
X81086887Y-81280000D01*
X81196120Y-81829151D01*
X81507189Y-82294698D01*
X81889275Y-82550000D01*
X81507189Y-82805302D01*
X81196120Y-83270849D01*
X81086887Y-83820000D01*
X81196120Y-84369151D01*
X81507189Y-84834698D01*
X81972736Y-85145767D01*
X82521887Y-85255000D01*
X82578113Y-85255000D01*
X83127264Y-85145767D01*
X83592811Y-84834698D01*
X83820000Y-84494686D01*
X84047189Y-84834698D01*
X84429275Y-85090000D01*
X84047189Y-85345302D01*
X83736120Y-85810849D01*
X83626887Y-86360000D01*
X83736120Y-86909151D01*
X84047189Y-87374698D01*
X84429275Y-87630000D01*
X84047189Y-87885302D01*
X83815336Y-88232294D01*
X83564698Y-87857189D01*
X83099151Y-87546120D01*
X82550000Y-87436887D01*
X82000849Y-87546120D01*
X81535302Y-87857189D01*
X81224233Y-88322736D01*
X81115000Y-88871887D01*
X81115000Y-88928113D01*
X81224233Y-89477264D01*
X81535302Y-89942811D01*
X82000849Y-90253880D01*
X82550000Y-90363113D01*
X83099151Y-90253880D01*
X83564698Y-89942811D01*
X83815336Y-89567706D01*
X84047189Y-89914698D01*
X84429275Y-90170000D01*
X84047189Y-90425302D01*
X83736120Y-90890849D01*
X83626887Y-91440000D01*
X83736120Y-91989151D01*
X84047189Y-92454698D01*
X84429275Y-92710000D01*
X84047189Y-92965302D01*
X83736120Y-93430849D01*
X83626887Y-93980000D01*
X83736120Y-94529151D01*
X84047189Y-94994698D01*
X84429275Y-95250000D01*
X84047189Y-95505302D01*
X83736120Y-95970849D01*
X83626887Y-96520000D01*
X83736120Y-97069151D01*
X84047189Y-97534698D01*
X84429275Y-97790000D01*
X84047189Y-98045302D01*
X83822408Y-98381710D01*
X83767243Y-98248200D01*
X83363923Y-97844176D01*
X82836691Y-97625250D01*
X82265813Y-97624752D01*
X81738200Y-97842757D01*
X81334176Y-98246077D01*
X81115250Y-98773309D01*
X81114752Y-99344187D01*
X81332757Y-99871800D01*
X81736077Y-100275824D01*
X82263309Y-100494750D01*
X82834187Y-100495248D01*
X83361800Y-100277243D01*
X83765824Y-99873923D01*
X83822245Y-99738046D01*
X84047189Y-100074698D01*
X84429275Y-100330000D01*
X84047189Y-100585302D01*
X83736120Y-101050849D01*
X83626887Y-101600000D01*
X83736120Y-102149151D01*
X84047189Y-102614698D01*
X84512736Y-102925767D01*
X85061887Y-103035000D01*
X85118113Y-103035000D01*
X85667264Y-102925767D01*
X86132811Y-102614698D01*
X86360000Y-102274686D01*
X86587189Y-102614698D01*
X87052736Y-102925767D01*
X87601887Y-103035000D01*
X87658113Y-103035000D01*
X88190000Y-102929201D01*
X88190000Y-103277560D01*
X86780000Y-103277560D01*
X86544683Y-103321838D01*
X86328559Y-103460910D01*
X86183569Y-103673110D01*
X86132560Y-103925000D01*
X86132560Y-105625000D01*
X86176838Y-105860317D01*
X86315910Y-106076441D01*
X86528110Y-106221431D01*
X86636107Y-106243301D01*
X86358355Y-106548076D01*
X86188524Y-106958110D01*
X86309845Y-107188000D01*
X87503000Y-107188000D01*
X87503000Y-107168000D01*
X87757000Y-107168000D01*
X87757000Y-107188000D01*
X87777000Y-107188000D01*
X87777000Y-107442000D01*
X87757000Y-107442000D01*
X87757000Y-107462000D01*
X87503000Y-107462000D01*
X87503000Y-107442000D01*
X86309845Y-107442000D01*
X86188524Y-107671890D01*
X86358355Y-108081924D01*
X86748642Y-108510183D01*
X86891553Y-108577298D01*
X86550853Y-108804946D01*
X86228946Y-109286715D01*
X86115907Y-109855000D01*
X86227298Y-110415000D01*
X82659396Y-110415000D01*
X82765000Y-109884093D01*
X82765000Y-109825907D01*
X82651961Y-109257622D01*
X82330054Y-108775853D01*
X82044422Y-108585000D01*
X82330054Y-108394147D01*
X82651961Y-107912378D01*
X82765000Y-107344093D01*
X82765000Y-107285907D01*
X82651961Y-106717622D01*
X82330054Y-106235853D01*
X81848285Y-105913946D01*
X81280000Y-105800907D01*
X80711715Y-105913946D01*
X80229946Y-106235853D01*
X80002298Y-106576553D01*
X79935183Y-106433642D01*
X79506924Y-106043355D01*
X79096890Y-105873524D01*
X78867000Y-105994845D01*
X78867000Y-107188000D01*
X78887000Y-107188000D01*
X78887000Y-107442000D01*
X78867000Y-107442000D01*
X78867000Y-109728000D01*
X78887000Y-109728000D01*
X78887000Y-109982000D01*
X78867000Y-109982000D01*
X78867000Y-110002000D01*
X78613000Y-110002000D01*
X78613000Y-109982000D01*
X78593000Y-109982000D01*
X78593000Y-109728000D01*
X78613000Y-109728000D01*
X78613000Y-107442000D01*
X78593000Y-107442000D01*
X78593000Y-107188000D01*
X78613000Y-107188000D01*
X78613000Y-105994845D01*
X78383110Y-105873524D01*
X77973076Y-106043355D01*
X77544817Y-106433642D01*
X77477702Y-106576553D01*
X77250054Y-106235853D01*
X76768285Y-105913946D01*
X76200000Y-105800907D01*
X75631715Y-105913946D01*
X75149946Y-106235853D01*
X74828039Y-106717622D01*
X74715000Y-107285907D01*
X74715000Y-107344093D01*
X74828039Y-107912378D01*
X75149946Y-108394147D01*
X75151179Y-108394971D01*
X75114683Y-108401838D01*
X74898559Y-108540910D01*
X74753569Y-108753110D01*
X74702560Y-109005000D01*
X74702560Y-110415000D01*
X71347440Y-110415000D01*
X71347440Y-109005000D01*
X71303162Y-108769683D01*
X71164090Y-108553559D01*
X70951890Y-108408569D01*
X70884459Y-108394914D01*
X70929147Y-108365054D01*
X71251054Y-107883285D01*
X71364093Y-107315000D01*
X71251054Y-106746715D01*
X70929147Y-106264946D01*
X70599974Y-106045000D01*
X70929147Y-105825054D01*
X71251054Y-105343285D01*
X71364093Y-104775000D01*
X71274616Y-104325167D01*
X72724838Y-104325167D01*
X72866883Y-104668943D01*
X72900000Y-104702118D01*
X72900000Y-105482537D01*
X72867808Y-105514673D01*
X72725162Y-105858201D01*
X72724838Y-106230167D01*
X72866883Y-106573943D01*
X73129673Y-106837192D01*
X73473201Y-106979838D01*
X73845167Y-106980162D01*
X74188943Y-106838117D01*
X74452192Y-106575327D01*
X74594838Y-106231799D01*
X74595162Y-105859833D01*
X74453117Y-105516057D01*
X74420000Y-105482882D01*
X74420000Y-104702463D01*
X74452192Y-104670327D01*
X74594838Y-104326799D01*
X74595162Y-103954833D01*
X74453117Y-103611057D01*
X74190327Y-103347808D01*
X73846799Y-103205162D01*
X73474833Y-103204838D01*
X73131057Y-103346883D01*
X72867808Y-103609673D01*
X72725162Y-103953201D01*
X72724838Y-104325167D01*
X71274616Y-104325167D01*
X71251054Y-104206715D01*
X70929147Y-103724946D01*
X70447378Y-103403039D01*
X69879093Y-103290000D01*
X69820907Y-103290000D01*
X69290000Y-103395604D01*
X69290000Y-102892071D01*
X69500959Y-102991914D01*
X69723000Y-102870629D01*
X69723000Y-101727000D01*
X69977000Y-101727000D01*
X69977000Y-102870629D01*
X70199041Y-102991914D01*
X70705134Y-102752389D01*
X71081041Y-102337423D01*
X71120000Y-102243361D01*
X71158959Y-102337423D01*
X71534866Y-102752389D01*
X72040959Y-102991914D01*
X72263000Y-102870629D01*
X72263000Y-101727000D01*
X72517000Y-101727000D01*
X72517000Y-102870629D01*
X72739041Y-102991914D01*
X73245134Y-102752389D01*
X73621041Y-102337423D01*
X73781904Y-101949039D01*
X73659915Y-101727000D01*
X72517000Y-101727000D01*
X72263000Y-101727000D01*
X71120085Y-101727000D01*
X71120000Y-101727155D01*
X71119915Y-101727000D01*
X69977000Y-101727000D01*
X69723000Y-101727000D01*
X69703000Y-101727000D01*
X69703000Y-101473000D01*
X69723000Y-101473000D01*
X69723000Y-101453000D01*
X69977000Y-101453000D01*
X69977000Y-101473000D01*
X71119915Y-101473000D01*
X71120000Y-101472845D01*
X71120085Y-101473000D01*
X72263000Y-101473000D01*
X72263000Y-101453000D01*
X72517000Y-101453000D01*
X72517000Y-101473000D01*
X73659915Y-101473000D01*
X73781904Y-101250961D01*
X73621041Y-100862577D01*
X73245134Y-100447611D01*
X73028297Y-100344986D01*
X73432811Y-100074698D01*
X73657592Y-99738290D01*
X73712757Y-99871800D01*
X74116077Y-100275824D01*
X74643309Y-100494750D01*
X75214187Y-100495248D01*
X75741800Y-100277243D01*
X76145824Y-99873923D01*
X76364750Y-99346691D01*
X76364752Y-99344187D01*
X77304752Y-99344187D01*
X77522757Y-99871800D01*
X77926077Y-100275824D01*
X78453309Y-100494750D01*
X79024187Y-100495248D01*
X79551800Y-100277243D01*
X79955824Y-99873923D01*
X80174750Y-99346691D01*
X80175248Y-98775813D01*
X79957243Y-98248200D01*
X79553923Y-97844176D01*
X79026691Y-97625250D01*
X78455813Y-97624752D01*
X77928200Y-97842757D01*
X77524176Y-98246077D01*
X77305250Y-98773309D01*
X77304752Y-99344187D01*
X76364752Y-99344187D01*
X76365248Y-98775813D01*
X76147243Y-98248200D01*
X75743923Y-97844176D01*
X75216691Y-97625250D01*
X74645813Y-97624752D01*
X74118200Y-97842757D01*
X73714176Y-98246077D01*
X73657755Y-98381954D01*
X73432811Y-98045302D01*
X73050725Y-97790000D01*
X73432811Y-97534698D01*
X73743880Y-97069151D01*
X73853113Y-96520000D01*
X73743880Y-95970849D01*
X73432811Y-95505302D01*
X73050725Y-95250000D01*
X73432811Y-94994698D01*
X73743880Y-94529151D01*
X73853113Y-93980000D01*
X73743880Y-93430849D01*
X73432811Y-92965302D01*
X73050725Y-92710000D01*
X73432811Y-92454698D01*
X73743880Y-91989151D01*
X73853113Y-91440000D01*
X73743880Y-90890849D01*
X73432811Y-90425302D01*
X73050725Y-90170000D01*
X73432811Y-89914698D01*
X73664664Y-89567706D01*
X73915302Y-89942811D01*
X74380849Y-90253880D01*
X74930000Y-90363113D01*
X75479151Y-90253880D01*
X75944698Y-89942811D01*
X76255767Y-89477264D01*
X76365000Y-88928113D01*
X76365000Y-88871887D01*
X77305000Y-88871887D01*
X77305000Y-88928113D01*
X77414233Y-89477264D01*
X77725302Y-89942811D01*
X78190849Y-90253880D01*
X78740000Y-90363113D01*
X79289151Y-90253880D01*
X79754698Y-89942811D01*
X80065767Y-89477264D01*
X80175000Y-88928113D01*
X80175000Y-88871887D01*
X80065767Y-88322736D01*
X79754698Y-87857189D01*
X79289151Y-87546120D01*
X78740000Y-87436887D01*
X78190849Y-87546120D01*
X77725302Y-87857189D01*
X77414233Y-88322736D01*
X77305000Y-88871887D01*
X76365000Y-88871887D01*
X76255767Y-88322736D01*
X75944698Y-87857189D01*
X75479151Y-87546120D01*
X74930000Y-87436887D01*
X74380849Y-87546120D01*
X73915302Y-87857189D01*
X73664664Y-88232294D01*
X73432811Y-87885302D01*
X73050725Y-87630000D01*
X73432811Y-87374698D01*
X73743880Y-86909151D01*
X73816280Y-86545167D01*
X76534838Y-86545167D01*
X76676883Y-86888943D01*
X76939673Y-87152192D01*
X77283201Y-87294838D01*
X77655167Y-87295162D01*
X77998943Y-87153117D01*
X78032118Y-87120000D01*
X79447537Y-87120000D01*
X79479673Y-87152192D01*
X79823201Y-87294838D01*
X80195167Y-87295162D01*
X80538943Y-87153117D01*
X80802192Y-86890327D01*
X80944838Y-86546799D01*
X80945162Y-86174833D01*
X80803117Y-85831057D01*
X80540327Y-85567808D01*
X80196799Y-85425162D01*
X79824833Y-85424838D01*
X79481057Y-85566883D01*
X79447882Y-85600000D01*
X78032463Y-85600000D01*
X78000327Y-85567808D01*
X77656799Y-85425162D01*
X77284833Y-85424838D01*
X76941057Y-85566883D01*
X76677808Y-85829673D01*
X76535162Y-86173201D01*
X76534838Y-86545167D01*
X73816280Y-86545167D01*
X73853113Y-86360000D01*
X73743880Y-85810849D01*
X73432811Y-85345302D01*
X73050725Y-85090000D01*
X73432811Y-84834698D01*
X73660000Y-84494686D01*
X73887189Y-84834698D01*
X74352736Y-85145767D01*
X74901887Y-85255000D01*
X74958113Y-85255000D01*
X75507264Y-85145767D01*
X75972811Y-84834698D01*
X76283880Y-84369151D01*
X76393113Y-83820000D01*
X76283880Y-83270849D01*
X75972811Y-82805302D01*
X75590725Y-82550000D01*
X75972811Y-82294698D01*
X76283880Y-81829151D01*
X76393113Y-81280000D01*
X76283880Y-80730849D01*
X75972811Y-80265302D01*
X75590725Y-80010000D01*
X75972811Y-79754698D01*
X76283880Y-79289151D01*
X76393113Y-78740000D01*
X76283880Y-78190849D01*
X75972811Y-77725302D01*
X75568297Y-77455014D01*
X75785134Y-77352389D01*
X76161041Y-76937423D01*
X76321904Y-76549039D01*
X76199915Y-76327000D01*
X75057000Y-76327000D01*
X75057000Y-76347000D01*
X74803000Y-76347000D01*
X74803000Y-76327000D01*
X74783000Y-76327000D01*
X74783000Y-76073000D01*
X74803000Y-76073000D01*
X74803000Y-74929371D01*
X75057000Y-74929371D01*
X75057000Y-76073000D01*
X76199915Y-76073000D01*
X76321904Y-75850961D01*
X76161041Y-75462577D01*
X75785134Y-75047611D01*
X75279041Y-74808086D01*
X75057000Y-74929371D01*
X74803000Y-74929371D01*
X74580959Y-74808086D01*
X74074866Y-75047611D01*
X73698959Y-75462577D01*
X73668009Y-75537301D01*
X73432811Y-75185302D01*
X73050725Y-74930000D01*
X73432811Y-74674698D01*
X73743880Y-74209151D01*
X73853113Y-73660000D01*
X73743880Y-73110849D01*
X73432811Y-72645302D01*
X73050725Y-72390000D01*
X73432811Y-72134698D01*
X73743880Y-71669151D01*
X73853113Y-71120000D01*
X73743880Y-70570849D01*
X73432811Y-70105302D01*
X73288535Y-70008899D01*
X73425317Y-69983162D01*
X73641441Y-69844090D01*
X73786431Y-69631890D01*
X73837440Y-69380000D01*
X73837440Y-67780000D01*
X73793162Y-67544683D01*
X73654090Y-67328559D01*
X73441890Y-67183569D01*
X73190000Y-67132560D01*
X71590000Y-67132560D01*
X71354683Y-67176838D01*
X71138559Y-67315910D01*
X70993569Y-67528110D01*
X70942560Y-67780000D01*
X70942560Y-69380000D01*
X70986838Y-69615317D01*
X70987180Y-69615848D01*
X70857745Y-69576861D01*
X70029605Y-70405000D01*
X70857745Y-71233139D01*
X70944211Y-71207094D01*
X71036120Y-71669151D01*
X71347189Y-72134698D01*
X71729275Y-72390000D01*
X71347189Y-72645302D01*
X71276850Y-72750572D01*
X71253162Y-72624683D01*
X71114090Y-72408559D01*
X70901890Y-72263569D01*
X70650000Y-72212560D01*
X69290000Y-72212560D01*
X69290000Y-71728597D01*
X69633223Y-71851965D01*
X70203454Y-71824778D01*
X70604005Y-71658864D01*
X70678139Y-71412745D01*
X69850000Y-70584605D01*
X69835858Y-70598748D01*
X69656253Y-70419143D01*
X69670395Y-70405000D01*
X69656253Y-70390858D01*
X69835858Y-70211252D01*
X69850000Y-70225395D01*
X70678139Y-69397255D01*
X70604005Y-69151136D01*
X70066777Y-68958035D01*
X69496546Y-68985222D01*
X69290000Y-69070776D01*
X69290000Y-66726262D01*
X69563309Y-66839750D01*
X70134187Y-66840248D01*
X70661800Y-66622243D01*
X71065824Y-66218923D01*
X71255599Y-65761892D01*
X71583514Y-65761892D01*
X71829817Y-66286358D01*
X72258076Y-66676645D01*
X72668110Y-66846476D01*
X72898000Y-66725155D01*
X72898000Y-65532000D01*
X71704181Y-65532000D01*
X71583514Y-65761892D01*
X71255599Y-65761892D01*
X71284750Y-65691691D01*
X71285248Y-65120813D01*
X71067243Y-64593200D01*
X70684711Y-64210000D01*
X72173974Y-64210000D01*
X71829817Y-64523642D01*
G36*
X87757000Y-88773000D02*
X87777000Y-88773000D01*
X87777000Y-89027000D01*
X87757000Y-89027000D01*
X87757000Y-89047000D01*
X87503000Y-89047000D01*
X87503000Y-89027000D01*
X87483000Y-89027000D01*
X87483000Y-88773000D01*
X87503000Y-88773000D01*
X87503000Y-88753000D01*
X87757000Y-88753000D01*
X87757000Y-88773000D01*
X87757000Y-88773000D01*
G37*
X87757000Y-88773000D02*
X87777000Y-88773000D01*
X87777000Y-89027000D01*
X87757000Y-89027000D01*
X87757000Y-89047000D01*
X87503000Y-89047000D01*
X87503000Y-89027000D01*
X87483000Y-89027000D01*
X87483000Y-88773000D01*
X87503000Y-88773000D01*
X87503000Y-88753000D01*
X87757000Y-88753000D01*
X87757000Y-88773000D01*
M02*
