M48
;DRILL file {KiCad 4.0.7} date 06/17/19 21:46:21
;FORMAT={2:4/ absolute / inch / suppress leading zeros}
FMAT,2
INCH,TZ
T1C0.016
T2C0.031
T3C0.039
%
G90
G05
M72
T1
X29000Y-41000
X29000Y-41750
X30500Y-34000
X30750Y-31500
X31250Y-31500
X31500Y-34000
X31750Y-31000
X31750Y-31500
X32750Y-28000
X32750Y-35750
X33250Y-28250
X33750Y-26750
X33750Y-27750
X33750Y-28250
T2
X27500Y-25750
X27500Y-27719
X27500Y-29000
X27500Y-30000
X27500Y-31000
X27500Y-32000
X27500Y-33000
X27500Y-34000
X27500Y-35000
X27500Y-36000
X27500Y-37000
X27500Y-38000
X27500Y-39000
X27500Y-40000
X28500Y-27000
X28500Y-28000
X28500Y-29000
X28500Y-30000
X28500Y-31000
X28500Y-32000
X28500Y-33000
X28500Y-34000
X28500Y-35000
X28500Y-36000
X28500Y-37000
X28500Y-38000
X28500Y-39000
X28500Y-40000
X29500Y-30000
X29500Y-31000
X29500Y-32000
X29500Y-33000
X29500Y-35000
X29500Y-39000
X31000Y-35000
X31000Y-39000
X32500Y-30000
X32500Y-31000
X32500Y-32000
X32500Y-33000
X32500Y-35000
X32500Y-39000
X33500Y-29000
X33500Y-30000
X33500Y-31000
X33500Y-32000
X33500Y-33000
X33500Y-34000
X33500Y-35000
X33500Y-36000
X33500Y-37000
X33500Y-38000
X33500Y-39000
X33500Y-40000
X34500Y-27000
X34500Y-28000
X34500Y-29000
X34500Y-30000
X34500Y-31000
X34500Y-32000
X34500Y-33000
X34500Y-34000
X34500Y-35000
X34500Y-36000
X34500Y-37000
X34500Y-38000
X34500Y-39000
X34500Y-40000
T3
X27500Y-41250
X27500Y-42250
X27500Y-43250
X28750Y-25750
X29750Y-25750
X30000Y-42250
X30000Y-43250
X30750Y-25750
X31000Y-42250
X31000Y-43250
X32000Y-42250
X32000Y-43250
X32250Y-25750
X33250Y-25750
X34250Y-25750
X34500Y-41250
X34500Y-42250
X34500Y-43250
T0
M30
