G04 #@! TF.FileFunction,Copper,L1,Top,Signal*
%FSLAX46Y46*%
G04 Gerber Fmt 4.6, Leading zero omitted, Abs format (unit mm)*
G04 Created by KiCad (PCBNEW 4.0.7) date 06/27/19 13:37:23*
%MOMM*%
%LPD*%
G01*
G04 APERTURE LIST*
%ADD10C,0.100000*%
%ADD11R,1.700000X1.700000*%
%ADD12O,1.700000X1.700000*%
%ADD13C,1.600000*%
%ADD14O,1.600000X1.600000*%
%ADD15R,1.600000X1.600000*%
%ADD16C,0.600000*%
%ADD17C,0.250000*%
G04 APERTURE END LIST*
D10*
D11*
X78105000Y-65405000D03*
D12*
X75565000Y-65405000D03*
X73025000Y-65405000D03*
D11*
X86995000Y-65405000D03*
D12*
X84455000Y-65405000D03*
X81915000Y-65405000D03*
D13*
X76200000Y-99060000D03*
D14*
X76200000Y-88900000D03*
D13*
X79375000Y-99060000D03*
D14*
X79375000Y-88900000D03*
D13*
X69850000Y-65405000D03*
X69850000Y-70405000D03*
D11*
X76200000Y-109855000D03*
D12*
X76200000Y-107315000D03*
X78740000Y-109855000D03*
X78740000Y-107315000D03*
X81280000Y-109855000D03*
X81280000Y-107315000D03*
D13*
X82550000Y-99060000D03*
D14*
X82550000Y-88900000D03*
D15*
X82550000Y-76200000D03*
D14*
X74930000Y-83820000D03*
X82550000Y-78740000D03*
X74930000Y-81280000D03*
X82550000Y-81280000D03*
X74930000Y-78740000D03*
X82550000Y-83820000D03*
X74930000Y-76200000D03*
D15*
X69850000Y-73660000D03*
D14*
X85090000Y-101600000D03*
X69850000Y-76200000D03*
X85090000Y-99060000D03*
X69850000Y-78740000D03*
X85090000Y-96520000D03*
X69850000Y-81280000D03*
X85090000Y-93980000D03*
X69850000Y-83820000D03*
X85090000Y-91440000D03*
X69850000Y-86360000D03*
X85090000Y-88900000D03*
X69850000Y-88900000D03*
X85090000Y-86360000D03*
X69850000Y-91440000D03*
X85090000Y-83820000D03*
X69850000Y-93980000D03*
X85090000Y-81280000D03*
X69850000Y-96520000D03*
X85090000Y-78740000D03*
X69850000Y-99060000D03*
X85090000Y-76200000D03*
X69850000Y-101600000D03*
X85090000Y-73660000D03*
D15*
X72390000Y-68580000D03*
D14*
X87630000Y-101600000D03*
X72390000Y-71120000D03*
X87630000Y-99060000D03*
X72390000Y-73660000D03*
X87630000Y-96520000D03*
X72390000Y-76200000D03*
X87630000Y-93980000D03*
X72390000Y-78740000D03*
X87630000Y-91440000D03*
X72390000Y-81280000D03*
X87630000Y-88900000D03*
X72390000Y-83820000D03*
X87630000Y-86360000D03*
X72390000Y-86360000D03*
X87630000Y-83820000D03*
X72390000Y-88900000D03*
X87630000Y-81280000D03*
X72390000Y-91440000D03*
X87630000Y-78740000D03*
X72390000Y-93980000D03*
X87630000Y-76200000D03*
X72390000Y-96520000D03*
X87630000Y-73660000D03*
X72390000Y-99060000D03*
X87630000Y-71120000D03*
X72390000Y-101600000D03*
X87630000Y-68580000D03*
D11*
X87630000Y-104775000D03*
D12*
X87630000Y-107315000D03*
X87630000Y-109855000D03*
D11*
X69850000Y-109855000D03*
D12*
X69850000Y-107315000D03*
X69850000Y-104775000D03*
D16*
X83185000Y-90805000D03*
X80645000Y-85090000D03*
X85725000Y-71755000D03*
X84455000Y-71755000D03*
X78105000Y-80010000D03*
X80645000Y-78740000D03*
X83185000Y-71120000D03*
X85725000Y-67945000D03*
X85725000Y-70485000D03*
X79375000Y-80010000D03*
X80645000Y-80010000D03*
X73660000Y-106045000D03*
X74295000Y-104140000D03*
X80010000Y-86360000D03*
X76835000Y-86995000D03*
D17*
X87630000Y-88900000D02*
X86360000Y-90170000D01*
X86360000Y-90170000D02*
X83820000Y-90170000D01*
X83820000Y-90170000D02*
X83185000Y-90805000D01*
X78105000Y-65405000D02*
X78105000Y-64135000D01*
X85090000Y-69850000D02*
X86360000Y-68580000D01*
X80645000Y-64135000D02*
X85725000Y-64135000D01*
X85725000Y-64135000D02*
X86995000Y-65405000D01*
X78105000Y-64135000D02*
X80645000Y-64135000D01*
X77470000Y-64135000D02*
X78105000Y-64135000D01*
X69850000Y-64770000D02*
X70485000Y-64135000D01*
X77470000Y-64135000D02*
X70485000Y-64135000D01*
X87630000Y-68580000D02*
X87630000Y-66040000D01*
X87630000Y-66040000D02*
X86995000Y-65405000D01*
X78105000Y-65405000D02*
X78105000Y-64770000D01*
X72390000Y-68580000D02*
X72390000Y-67945000D01*
X72390000Y-67945000D02*
X69850000Y-65405000D01*
X69850000Y-64770000D02*
X69850000Y-65405000D01*
X82550000Y-76200000D02*
X82550000Y-74295000D01*
X83185000Y-73660000D02*
X85090000Y-73660000D01*
X82550000Y-74295000D02*
X83185000Y-73660000D01*
X85090000Y-71120000D02*
X85090000Y-69850000D01*
X85090000Y-73660000D02*
X85090000Y-71120000D01*
X86360000Y-68580000D02*
X87630000Y-68580000D01*
X80645000Y-85090000D02*
X80645000Y-81280000D01*
X83185000Y-69215000D02*
X82550000Y-69215000D01*
X86360000Y-72390000D02*
X85725000Y-71755000D01*
X84455000Y-71755000D02*
X83820000Y-71120000D01*
X83820000Y-71120000D02*
X83820000Y-70485000D01*
X81915000Y-69215000D02*
X82550000Y-69215000D01*
X86360000Y-72390000D02*
X87630000Y-73660000D01*
X83185000Y-69215000D02*
X83820000Y-69850000D01*
X83820000Y-69850000D02*
X83820000Y-70485000D01*
X82550000Y-81280000D02*
X80645000Y-81280000D01*
X81915000Y-71120000D02*
X81915000Y-69215000D01*
X80010000Y-80645000D02*
X80010000Y-73025000D01*
X80010000Y-73025000D02*
X81915000Y-71120000D01*
X80645000Y-81280000D02*
X80010000Y-80645000D01*
X75565000Y-67310000D02*
X75565000Y-65405000D01*
X76200000Y-67945000D02*
X75565000Y-67310000D01*
X80645000Y-67945000D02*
X76200000Y-67945000D01*
X81915000Y-69215000D02*
X80645000Y-67945000D01*
X76200000Y-88900000D02*
X74930000Y-88900000D01*
X73660000Y-88265000D02*
X74295000Y-88900000D01*
X73660000Y-88265000D02*
X73660000Y-80645000D01*
X73660000Y-80645000D02*
X74295000Y-80010000D01*
X74295000Y-80010000D02*
X78105000Y-80010000D01*
X74930000Y-88900000D02*
X74295000Y-88900000D01*
X80645000Y-73660000D02*
X83185000Y-71120000D01*
X80645000Y-78105000D02*
X80645000Y-73660000D01*
X80645000Y-78740000D02*
X80645000Y-78105000D01*
X80645000Y-78740000D02*
X81280000Y-78740000D01*
X81280000Y-78740000D02*
X82550000Y-78740000D01*
X84455000Y-66675000D02*
X85725000Y-67945000D01*
X84455000Y-65405000D02*
X84455000Y-66675000D01*
X85725000Y-70485000D02*
X86360000Y-71120000D01*
X86360000Y-71120000D02*
X87630000Y-71120000D01*
X69850000Y-73660000D02*
X72390000Y-73660000D01*
X85090000Y-101600000D02*
X87630000Y-101600000D01*
X69850000Y-76200000D02*
X72390000Y-76200000D01*
X85090000Y-99060000D02*
X87630000Y-99060000D01*
X69850000Y-78740000D02*
X72390000Y-78740000D01*
X85090000Y-96520000D02*
X87630000Y-96520000D01*
X69850000Y-81280000D02*
X72390000Y-81280000D01*
X85090000Y-93980000D02*
X87630000Y-93980000D01*
X69850000Y-83820000D02*
X72390000Y-83820000D01*
X85090000Y-91440000D02*
X87630000Y-91440000D01*
X72390000Y-86360000D02*
X69850000Y-86360000D01*
X85090000Y-88900000D02*
X83820000Y-87630000D01*
X86360000Y-82550000D02*
X87630000Y-81280000D01*
X84455000Y-82550000D02*
X86360000Y-82550000D01*
X83820000Y-83185000D02*
X84455000Y-82550000D01*
X83820000Y-87630000D02*
X83820000Y-83185000D01*
X69850000Y-88900000D02*
X72390000Y-88900000D01*
X87630000Y-86360000D02*
X85090000Y-86360000D01*
X69850000Y-91440000D02*
X72390000Y-91440000D01*
X69850000Y-93980000D02*
X72390000Y-93980000D01*
X78740000Y-78105000D02*
X78740000Y-79375000D01*
X72390000Y-71120000D02*
X78105000Y-71120000D01*
X78740000Y-71755000D02*
X78105000Y-71120000D01*
X78740000Y-78105000D02*
X78740000Y-71755000D01*
X84455000Y-80010000D02*
X80645000Y-80010000D01*
X84455000Y-80010000D02*
X85090000Y-80645000D01*
X78740000Y-79375000D02*
X79375000Y-80010000D01*
X85090000Y-81280000D02*
X85090000Y-80645000D01*
X69850000Y-96520000D02*
X72390000Y-96520000D01*
X85090000Y-78740000D02*
X87630000Y-78740000D01*
X69850000Y-99060000D02*
X72390000Y-99060000D01*
X85090000Y-76200000D02*
X87630000Y-76200000D01*
X78105000Y-88265000D02*
X78740000Y-87630000D01*
X78105000Y-102870000D02*
X78105000Y-88265000D01*
X78740000Y-86360000D02*
X78740000Y-87630000D01*
X79375000Y-85725000D02*
X78740000Y-86360000D01*
X77470000Y-103505000D02*
X78105000Y-102870000D01*
X76200000Y-104775000D02*
X77470000Y-103505000D01*
X82550000Y-83820000D02*
X82550000Y-85090000D01*
X81915000Y-85725000D02*
X79375000Y-85725000D01*
X82550000Y-85090000D02*
X81915000Y-85725000D01*
X69850000Y-109855000D02*
X71755000Y-109855000D01*
X72390000Y-106045000D02*
X72390000Y-109220000D01*
X72390000Y-109220000D02*
X71755000Y-109855000D01*
X75565000Y-105410000D02*
X73025000Y-105410000D01*
X73025000Y-105410000D02*
X72390000Y-106045000D01*
X76200000Y-104775000D02*
X75565000Y-105410000D01*
X77470000Y-87630000D02*
X78105000Y-86995000D01*
X77470000Y-102235000D02*
X77470000Y-87630000D01*
X76835000Y-102870000D02*
X77470000Y-102235000D01*
X75565000Y-104140000D02*
X74930000Y-104775000D01*
X74930000Y-104775000D02*
X72390000Y-104775000D01*
X75565000Y-104140000D02*
X76835000Y-102870000D01*
X69850000Y-104775000D02*
X72390000Y-104775000D01*
X78105000Y-86995000D02*
X78105000Y-81915000D01*
X78105000Y-81915000D02*
X77470000Y-81280000D01*
X77470000Y-81280000D02*
X76200000Y-81280000D01*
X76200000Y-81280000D02*
X74930000Y-81280000D01*
X76200000Y-99060000D02*
X76200000Y-102235000D01*
X76200000Y-102235000D02*
X74295000Y-104140000D01*
X73660000Y-106045000D02*
X73660000Y-109220000D01*
X73660000Y-109220000D02*
X74295000Y-109855000D01*
X76200000Y-109855000D02*
X74295000Y-109855000D01*
X79375000Y-104140000D02*
X79375000Y-99060000D01*
X78740000Y-104775000D02*
X79375000Y-104140000D01*
X76200000Y-107315000D02*
X76200000Y-106045000D01*
X76835000Y-105410000D02*
X76200000Y-106045000D01*
X78105000Y-105410000D02*
X76835000Y-105410000D01*
X78740000Y-104775000D02*
X78105000Y-105410000D01*
X82550000Y-99060000D02*
X82550000Y-106045000D01*
X82550000Y-106045000D02*
X81280000Y-107315000D01*
X87630000Y-109855000D02*
X85090000Y-107315000D01*
X81280000Y-107315000D02*
X82550000Y-107315000D01*
X82550000Y-107315000D02*
X85090000Y-107315000D01*
X85090000Y-107315000D02*
X87630000Y-104775000D01*
X81280000Y-86360000D02*
X80010000Y-86360000D01*
X81915000Y-86995000D02*
X81280000Y-86360000D01*
X82550000Y-88900000D02*
X82550000Y-87630000D01*
X82550000Y-87630000D02*
X81915000Y-86995000D01*
X74930000Y-86360000D02*
X74930000Y-83820000D01*
X75565000Y-86995000D02*
X74930000Y-86360000D01*
X76835000Y-86995000D02*
X75565000Y-86995000D01*
M02*
