G04 #@! TF.FileFunction,Soldermask,Bot*
%FSLAX46Y46*%
G04 Gerber Fmt 4.6, Leading zero omitted, Abs format (unit mm)*
G04 Created by KiCad (PCBNEW 4.0.7) date 06/27/19 13:37:23*
%MOMM*%
%LPD*%
G01*
G04 APERTURE LIST*
%ADD10C,0.100000*%
%ADD11R,2.100000X2.100000*%
%ADD12O,2.100000X2.100000*%
%ADD13C,2.000000*%
%ADD14O,2.000000X2.000000*%
%ADD15R,2.000000X2.000000*%
G04 APERTURE END LIST*
D10*
D11*
X78105000Y-65405000D03*
D12*
X75565000Y-65405000D03*
X73025000Y-65405000D03*
D11*
X86995000Y-65405000D03*
D12*
X84455000Y-65405000D03*
X81915000Y-65405000D03*
D13*
X76200000Y-99060000D03*
D14*
X76200000Y-88900000D03*
D13*
X79375000Y-99060000D03*
D14*
X79375000Y-88900000D03*
D13*
X69850000Y-65405000D03*
X69850000Y-70405000D03*
D11*
X76200000Y-109855000D03*
D12*
X76200000Y-107315000D03*
X78740000Y-109855000D03*
X78740000Y-107315000D03*
X81280000Y-109855000D03*
X81280000Y-107315000D03*
D13*
X82550000Y-99060000D03*
D14*
X82550000Y-88900000D03*
D15*
X82550000Y-76200000D03*
D14*
X74930000Y-83820000D03*
X82550000Y-78740000D03*
X74930000Y-81280000D03*
X82550000Y-81280000D03*
X74930000Y-78740000D03*
X82550000Y-83820000D03*
X74930000Y-76200000D03*
D15*
X69850000Y-73660000D03*
D14*
X85090000Y-101600000D03*
X69850000Y-76200000D03*
X85090000Y-99060000D03*
X69850000Y-78740000D03*
X85090000Y-96520000D03*
X69850000Y-81280000D03*
X85090000Y-93980000D03*
X69850000Y-83820000D03*
X85090000Y-91440000D03*
X69850000Y-86360000D03*
X85090000Y-88900000D03*
X69850000Y-88900000D03*
X85090000Y-86360000D03*
X69850000Y-91440000D03*
X85090000Y-83820000D03*
X69850000Y-93980000D03*
X85090000Y-81280000D03*
X69850000Y-96520000D03*
X85090000Y-78740000D03*
X69850000Y-99060000D03*
X85090000Y-76200000D03*
X69850000Y-101600000D03*
X85090000Y-73660000D03*
D15*
X72390000Y-68580000D03*
D14*
X87630000Y-101600000D03*
X72390000Y-71120000D03*
X87630000Y-99060000D03*
X72390000Y-73660000D03*
X87630000Y-96520000D03*
X72390000Y-76200000D03*
X87630000Y-93980000D03*
X72390000Y-78740000D03*
X87630000Y-91440000D03*
X72390000Y-81280000D03*
X87630000Y-88900000D03*
X72390000Y-83820000D03*
X87630000Y-86360000D03*
X72390000Y-86360000D03*
X87630000Y-83820000D03*
X72390000Y-88900000D03*
X87630000Y-81280000D03*
X72390000Y-91440000D03*
X87630000Y-78740000D03*
X72390000Y-93980000D03*
X87630000Y-76200000D03*
X72390000Y-96520000D03*
X87630000Y-73660000D03*
X72390000Y-99060000D03*
X87630000Y-71120000D03*
X72390000Y-101600000D03*
X87630000Y-68580000D03*
D11*
X87630000Y-104775000D03*
D12*
X87630000Y-107315000D03*
X87630000Y-109855000D03*
D11*
X69850000Y-109855000D03*
D12*
X69850000Y-107315000D03*
X69850000Y-104775000D03*
M02*
